<svg width="9" height="6" viewBox="0 0 9 6" fill="none" xmlns="http://www.w3.org/2000/svg">
<path d="M4.10156 3.99405L7.14577 1.14806C7.20251 1.09315 7.27037 1.04934 7.3454 1.01921C7.42043 0.98908 7.50113 0.973219 7.58279 0.972556C7.66445 0.971893 7.74543 0.98644 7.82101 1.01535C7.89659 1.04426 7.96525 1.08695 8.023 1.14093C8.08074 1.19492 8.12641 1.25911 8.15733 1.32977C8.18825 1.40043 8.20381 1.47614 8.2031 1.55248C8.20239 1.62882 8.18543 1.70426 8.1532 1.77441C8.12096 1.84456 8.07411 1.908 8.01538 1.96104L4.53636 5.21352C4.42103 5.32131 4.26464 5.38186 4.10156 5.38186C3.93849 5.38186 3.78209 5.32131 3.66676 5.21352L0.18775 1.96104C0.129012 1.908 0.0821604 1.84456 0.0499293 1.77441C0.0176981 1.70426 0.000732809 1.62882 2.32201e-05 1.55248C-0.000686368 1.47614 0.014874 1.40043 0.0457964 1.32977C0.0767187 1.25911 0.122384 1.19492 0.180127 1.14093C0.23787 1.08695 0.306536 1.04426 0.382116 1.01535C0.457696 0.98644 0.538678 0.971893 0.620336 0.972556C0.701995 0.973219 0.782694 0.98908 0.857726 1.01921C0.932757 1.04934 1.00062 1.09315 1.05735 1.14806L4.10156 3.99405Z" fill="black"/>
</svg>
