<svg width="9" height="6" viewBox="0 0 9 6" fill="none" xmlns="http://www.w3.org/2000/svg">
<path d="M4.10156 3.99418L7.14577 1.14818C7.20251 1.09327 7.27037 1.04947 7.3454 1.01933C7.42043 0.989202 7.50113 0.973341 7.58279 0.972678C7.66445 0.972015 7.74543 0.986562 7.82101 1.01547C7.89659 1.04438 7.96525 1.08707 8.023 1.14105C8.08074 1.19504 8.12641 1.25923 8.15733 1.32989C8.18825 1.40055 8.20381 1.47626 8.2031 1.5526C8.20239 1.62894 8.18543 1.70439 8.1532 1.77453C8.12096 1.84468 8.07411 1.90812 8.01538 1.96116L4.53636 5.21364C4.42103 5.32143 4.26464 5.38198 4.10156 5.38198C3.93849 5.38198 3.78209 5.32143 3.66676 5.21364L0.18775 1.96116C0.129012 1.90812 0.0821604 1.84468 0.0499293 1.77453C0.0176981 1.70439 0.000732809 1.62894 2.32201e-05 1.5526C-0.000686368 1.47626 0.014874 1.40055 0.0457964 1.32989C0.0767187 1.25923 0.122384 1.19504 0.180127 1.14105C0.23787 1.08707 0.306536 1.04438 0.382116 1.01547C0.457696 0.986562 0.538678 0.972015 0.620336 0.972678C0.701995 0.973341 0.782694 0.989202 0.857726 1.01933C0.932757 1.04947 1.00062 1.09327 1.05735 1.14818L4.10156 3.99418Z" fill="#E0B279"/>
</svg>
