<svg width="35" height="30" viewBox="0 0 35 30" fill="none" xmlns="http://www.w3.org/2000/svg">
<path opacity="0.09" d="M1.76471 30C0.588235 24.8293 0 20.3415 0 16.5366C0 11.0732 1.27451 6.97561 3.82353 4.2439C6.37255 1.41463 10.098 0 15 0V5.85366C12.451 5.85366 10.5882 6.53659 9.41177 7.90244C8.33333 9.26829 7.79412 11.3171 7.79412 14.0488V17.4146H15.1471V30H1.76471ZM21.6176 30C20.4412 24.8293 19.8529 20.3415 19.8529 16.5366C19.8529 11.0732 21.1275 6.97561 23.6765 4.2439C26.2255 1.41463 29.951 0 34.8529 0V5.85366C32.3039 5.85366 30.4412 6.53659 29.2647 7.90244C28.1863 9.26829 27.6471 11.3171 27.6471 14.0488V17.4146H35V30H21.6176Z" fill="#583101"/>
</svg>
