<svg width="8" height="12" viewBox="0 0 8 12" fill="none" xmlns="http://www.w3.org/2000/svg">
<path d="M7.09601 11.8683C7.18036 11.7838 7.22774 11.6693 7.22774 11.55C7.22774 11.4306 7.18036 11.3161 7.09601 11.2317L1.85893 5.99458L7.09601 0.757508C7.17557 0.672121 7.21889 0.559183 7.21683 0.44249C7.21477 0.325796 7.16749 0.214457 7.08497 0.131929C7.00244 0.0494017 6.8911 0.00212883 6.77441 6.9914e-05C6.65771 -0.001989 6.54478 0.0413267 6.45939 0.120892L0.90401 5.67627C0.819658 5.76073 0.772278 5.87521 0.772278 5.99458C0.772278 6.11395 0.819658 6.22843 0.90401 6.31289L6.45939 11.8683C6.54385 11.9526 6.65833 12 6.7777 12C6.89706 12 7.01155 11.9526 7.09601 11.8683Z" fill="black"/>
</svg>
