<svg width="202" height="171" viewBox="0 0 202 171" fill="none" xmlns="http://www.w3.org/2000/svg">
<path d="M113.177 151.61L119.193 168.48L115.539 170.259L106.537 145.489L104.104 138.099L102.718 117.261C101.582 115.528 99.0886 111.857 98.2031 111.041C97.3177 110.224 89.6592 101.793 85.9406 97.6787L83.9899 102.058C77.7346 105.352 63.298 103.919 56.8616 102.79C51.6343 105.179 31.1031 110.963 19.5255 101.321C7.94779 91.6786 1.27932 97.8862 0.594472 94.1664C-0.0903678 90.4466 13.378 81.2411 18.0081 77.2728C22.6383 73.3044 60.906 71.5147 66.9934 77.1258C71.8634 81.6146 78.0999 83.9313 80.6095 84.5286L85.5901 89.1194L86.3626 94.9791L99.6442 107.221L102.192 104.422L96.5544 83.7829C93.5445 79.6359 85.9839 70.1275 79.8208 65.2704C72.1169 59.1989 65.4485 65.4066 48.8626 63.5024C32.2767 61.5982 7.32968 37.574 7.83927 37.0142C8.34886 36.4544 25.8663 35.0992 44.1125 38.5337C62.3586 41.9681 85.6892 65.5319 87.3494 67.0622C89.0096 68.5924 90.2479 72.8224 90.8013 73.3325L95.7819 77.9233L87.5085 57.9432C85.746 53.9164 81.6852 45.7809 79.5418 45.4523C76.8624 45.0417 68.6928 40.6 66.8135 33.7202C64.9342 26.8404 61.3233 29.6891 56.2112 21.8886C52.1215 15.6481 51.4573 5.49567 51.6363 1.19949C55.8182 -0.711207 63.4169 2.79245 66.6935 4.78311C82.9691 17.3141 83.341 34.1978 81.4925 41.0733L83.7937 45.2535L85.3225 43.5741L85.7444 40.8744C83.4127 25.5474 97.3612 12.4604 104.627 7.83282C104.302 8.56266 103.748 12.3761 104.133 21.7913C104.519 31.2064 95.2968 40.0704 90.6374 43.3255L88.5991 45.5647C89.0556 48.0446 90.0794 53.1063 90.5222 53.5144C90.9649 53.9225 93.3476 57.4914 94.4836 59.2248L98.9385 50.9769C108.863 43.6523 115.391 36.6294 117.415 34.0335C126.355 17.0575 134.196 16.3447 136.999 18.1103C139.352 23.5744 133.04 38.4839 129.59 45.2556C123.053 54.6729 109.389 54.7759 102.856 55.6174L95.7219 63.4547L98.1545 70.8446L100.702 68.0456L101.124 65.346L103.25 65.2466L111.491 58.4294L110.56 61.6889L109.075 64.4382L105.552 69.4267L101.053 76.6048L106.532 106.363L115.37 101.126C125.189 91.2337 137.419 84.7303 142.307 82.7151C161.585 74.953 189.802 80.8512 201.5 84.7706C191.458 90.9573 167.786 104.142 153.435 107.386C139.083 110.629 124.942 105.145 119.666 101.997L110.871 108.304L106.285 113.342L108.181 133.621L113.177 151.61Z" fill="#CFC8C8"/>
</svg>
