<svg width="8" height="12" viewBox="0 0 8 12" fill="none" xmlns="http://www.w3.org/2000/svg">
<path d="M0.904055 11.8683C0.819703 11.7838 0.772324 11.6693 0.772324 11.55C0.772324 11.4306 0.819703 11.3161 0.904055 11.2317L6.14113 5.99458L0.904056 0.757508C0.824491 0.672121 0.781176 0.559183 0.783235 0.44249C0.785293 0.325796 0.832566 0.214457 0.915094 0.131929C0.997622 0.0494017 1.10896 0.00212883 1.22565 6.9914e-05C1.34235 -0.001989 1.45529 0.0413267 1.54067 0.120892L7.09605 5.67627C7.1804 5.76073 7.22778 5.87521 7.22778 5.99458C7.22778 6.11395 7.1804 6.22843 7.09605 6.31289L1.54067 11.8683C1.45622 11.9526 1.34173 12 1.22236 12C1.103 12 0.988512 11.9526 0.904055 11.8683Z" fill="black"/>
</svg>
