<svg width="326" height="281" viewBox="0 0 326 281" fill="none" xmlns="http://www.w3.org/2000/svg">
<path d="M321.469 280.523L325.838 261.465C320.623 252.572 309.531 231.62 306.879 218.957C305.141 210.661 306.615 202.628 308.61 196.827C309.813 194.327 310.921 191.863 311.8 189.809C310.853 191.34 309.659 193.775 308.61 196.827C304.689 204.972 299.758 213.494 298.467 209.453C297.945 209.274 284.338 190.394 277.601 180.976C268.963 172.129 249.397 152.177 240.237 143.15C237.508 139.763 231.73 130.529 230.444 120.686C229.799 119.73 230.454 112.172 238.227 89.5856C242.419 66.7954 248.449 17.0265 239.028 0.272169C230.55 9.34844 212.669 35.7014 208.974 68.5029C207.694 78.5877 207.9 101.325 218.969 111.597C220.651 110.952 224.307 110.937 225.472 116.038C226.637 121.139 228.854 132.378 229.817 137.36L205.134 117.85C201.2 111.601 190.941 97.9855 181.38 93.5198C176.726 80.1687 158.946 49.229 125.058 32.2789C118.831 29.1566 104.855 22.2416 98.7683 19.5593C101.832 31.8736 110.902 58.9835 122.674 68.9095C130.089 76.3573 147.663 92.1966 158.631 95.9712C162.473 97.5382 171.868 99.9397 178.718 97.0098C183.857 99.7576 194.638 107.188 196.647 114.93C193.533 113.368 183.891 110.833 170.232 113.182C162.791 114.293 145.394 114.914 135.33 108.513C129.203 96.6136 110.978 71.4933 87.0938 66.2107C81.9296 65.6573 68.8042 64.6159 57.6155 64.8775C54.9958 64.7102 49.234 64.1959 47.145 63.4769C57.3311 70.6543 75.7199 86.5294 79.5368 96.655C80.3655 100.612 101.834 114.61 126.542 112.832C127.856 112.55 130.966 111.858 132.894 111.347L140.076 113.818L93.247 120.466C82.475 113.577 53.4838 109.131 23.6952 146.464C6.12623 166.904 0.806261 172.453 0.095847 172.865C0.0696297 172.853 0.0436542 172.841 0.0179442 172.829C-0.004267 172.894 0.0183912 172.91 0.095847 172.865C6.26992 175.663 25.9734 176.199 56.1366 156.161C59.9698 152.095 69.2583 143.493 75.7465 141.614C80.7181 139.898 91.1684 134.144 93.1969 124.855L135.43 118.829L131.89 122.751C123.604 121.368 104.315 126.919 93.449 160.19C90.9801 165.949 85.0329 177.855 80.9953 179.403C89.8479 178.432 110.452 169.766 122.048 142.862C125.469 139.994 132.393 132.748 132.719 126.708C136.109 123.223 145.856 116.542 157.727 117.69L159.008 120.334L157.878 123.617C152.02 126.496 139.921 138.879 138.395 165.378C138.847 170.429 141.659 181.776 149.293 186.753C150.054 183.833 152.853 177.257 157.955 174.313C161.646 169.953 167.702 158.721 162.399 148.672C162.574 146.039 163.905 139.203 167.822 132.914C171.739 126.625 165.436 124.994 161.795 124.965L166.214 120.611L172.793 118.469C182.15 115.326 204.039 114.243 216.735 135.061L198.355 137.547C208.758 138.435 230.083 140.83 232.152 143.304L279.911 189.115L278.731 196.786C284.029 198.365 298.226 211.427 312.63 251.044L321.469 280.523Z" fill="#C6487D" fill-opacity="0.06"/>
</svg>
