<svg width="2037" height="411" viewBox="0 0 2037 411" fill="none" xmlns="http://www.w3.org/2000/svg">
<path fill-rule="evenodd" clip-rule="evenodd" d="M0.218657 204.137L85.0431 221.928C169.869 238.539 339.519 272.94 509.233 247.162C678.947 222.564 848.725 137.787 1018.41 137.969C1188.1 138.151 1357.69 223.291 1527.39 214.033C1697.09 205.955 1866.88 104.658 1951.78 54.0096L2036.68 2.18111L2036.24 410.456L1951.4 410.365C1866.55 410.274 1696.87 410.092 1527.18 409.911C1357.49 409.729 1187.81 409.547 1018.12 409.365C848.434 409.184 678.747 409.002 509.06 408.82C339.374 408.638 169.687 408.456 84.8434 408.366L-3.73709e-06 408.275L0.218657 204.137Z" fill="#7F4524" fill-opacity="0.2"/>
</svg>
